<mxfile host="app.diagrams.net" modified="2024-05-23T17:16:08.732Z" agent="Mozilla/5.0 (Windows NT 10.0; Win64; x64) AppleWebKit/537.36 (KHTML, like Gecko) Chrome/124.0.0.0 Safari/537.36" etag="z7CyegXqYbKAppdy_-N9" version="24.4.6" type="device">
  <diagram name="Страница — 1" id="fiNg3RvvNLiUf0lD20wO">
    <mxGraphModel dx="1545" dy="960" grid="1" gridSize="10" guides="1" tooltips="1" connect="1" arrows="1" fold="1" page="1" pageScale="1" pageWidth="827" pageHeight="1169" math="0" shadow="0">
      <root>
        <mxCell id="0" />
        <mxCell id="1" parent="0" />
        <mxCell id="rPDnVV_8i12kOEM-_KZa-1" value="Начало" style="rounded=1;whiteSpace=wrap;html=1;arcSize=50;" parent="1" vertex="1">
          <mxGeometry x="273.2" y="100" width="80" height="40" as="geometry" />
        </mxCell>
        <mxCell id="rPDnVV_8i12kOEM-_KZa-2" value="" style="endArrow=classic;html=1;rounded=0;exitX=0.5;exitY=1;exitDx=0;exitDy=0;entryX=0.5;entryY=0;entryDx=0;entryDy=0;" parent="1" source="rPDnVV_8i12kOEM-_KZa-1" edge="1" target="gXjHrzIVwWU5jrJc0VjO-46">
          <mxGeometry width="50" height="50" relative="1" as="geometry">
            <mxPoint x="310" y="120" as="sourcePoint" />
            <mxPoint x="315.79999999999995" y="160" as="targetPoint" />
          </mxGeometry>
        </mxCell>
        <mxCell id="rPDnVV_8i12kOEM-_KZa-3" value="" style="endArrow=classic;html=1;rounded=0;entryX=0.5;entryY=0;entryDx=0;entryDy=0;exitX=0.5;exitY=1;exitDx=0;exitDy=0;" parent="1" target="rPDnVV_8i12kOEM-_KZa-5" edge="1" source="gXjHrzIVwWU5jrJc0VjO-47">
          <mxGeometry width="50" height="50" relative="1" as="geometry">
            <mxPoint x="309" y="330" as="sourcePoint" />
            <mxPoint x="309" y="390" as="targetPoint" />
          </mxGeometry>
        </mxCell>
        <mxCell id="rPDnVV_8i12kOEM-_KZa-4" style="edgeStyle=orthogonalEdgeStyle;rounded=0;orthogonalLoop=1;jettySize=auto;html=1;exitX=0.5;exitY=1;exitDx=0;exitDy=0;entryX=0.5;entryY=0;entryDx=0;entryDy=0;" parent="1" source="rPDnVV_8i12kOEM-_KZa-5" target="rPDnVV_8i12kOEM-_KZa-7" edge="1">
          <mxGeometry relative="1" as="geometry" />
        </mxCell>
        <mxCell id="rPDnVV_8i12kOEM-_KZa-5" value="multiple = 1&lt;div&gt;flag = false&lt;/div&gt;" style="rounded=0;whiteSpace=wrap;html=1;" parent="1" vertex="1">
          <mxGeometry x="271.2" y="330" width="84" height="40" as="geometry" />
        </mxCell>
        <mxCell id="gXjHrzIVwWU5jrJc0VjO-2" style="edgeStyle=orthogonalEdgeStyle;rounded=0;orthogonalLoop=1;jettySize=auto;html=1;exitX=0.5;exitY=1;exitDx=0;exitDy=0;entryX=0.5;entryY=0;entryDx=0;entryDy=0;" edge="1" parent="1" source="rPDnVV_8i12kOEM-_KZa-7" target="rPDnVV_8i12kOEM-_KZa-9">
          <mxGeometry relative="1" as="geometry" />
        </mxCell>
        <mxCell id="gXjHrzIVwWU5jrJc0VjO-8" style="edgeStyle=orthogonalEdgeStyle;rounded=0;orthogonalLoop=1;jettySize=auto;html=1;exitX=1;exitY=0.5;exitDx=0;exitDy=0;entryX=0;entryY=0.5;entryDx=0;entryDy=0;" edge="1" parent="1" source="rPDnVV_8i12kOEM-_KZa-7" target="rPDnVV_8i12kOEM-_KZa-25">
          <mxGeometry relative="1" as="geometry" />
        </mxCell>
        <mxCell id="rPDnVV_8i12kOEM-_KZa-7" value="j = 0, N - 1" style="shape=hexagon;perimeter=hexagonPerimeter2;whiteSpace=wrap;html=1;fixedSize=1;" parent="1" vertex="1">
          <mxGeometry x="265" y="397" width="100" height="40" as="geometry" />
        </mxCell>
        <mxCell id="rPDnVV_8i12kOEM-_KZa-36" style="edgeStyle=orthogonalEdgeStyle;rounded=0;orthogonalLoop=1;jettySize=auto;html=1;exitX=0.5;exitY=1;exitDx=0;exitDy=0;entryX=0.5;entryY=0;entryDx=0;entryDy=0;" parent="1" source="rPDnVV_8i12kOEM-_KZa-9" target="rPDnVV_8i12kOEM-_KZa-35" edge="1">
          <mxGeometry relative="1" as="geometry" />
        </mxCell>
        <mxCell id="rPDnVV_8i12kOEM-_KZa-9" value="i = 1, N - 1" style="shape=hexagon;perimeter=hexagonPerimeter2;whiteSpace=wrap;html=1;fixedSize=1;" parent="1" vertex="1">
          <mxGeometry x="263.9" y="457" width="100" height="40" as="geometry" />
        </mxCell>
        <mxCell id="gXjHrzIVwWU5jrJc0VjO-1" style="edgeStyle=orthogonalEdgeStyle;rounded=0;orthogonalLoop=1;jettySize=auto;html=1;exitX=0.5;exitY=1;exitDx=0;exitDy=0;entryX=0.5;entryY=0;entryDx=0;entryDy=0;" edge="1" parent="1" source="rPDnVV_8i12kOEM-_KZa-17" target="rPDnVV_8i12kOEM-_KZa-21">
          <mxGeometry relative="1" as="geometry" />
        </mxCell>
        <mxCell id="rPDnVV_8i12kOEM-_KZa-17" value="i" style="ellipse;whiteSpace=wrap;html=1;aspect=fixed;" parent="1" vertex="1">
          <mxGeometry x="298.9" y="617" width="30" height="30" as="geometry" />
        </mxCell>
        <mxCell id="rPDnVV_8i12kOEM-_KZa-19" value="" style="endArrow=classic;html=1;rounded=0;entryX=0;entryY=0.5;entryDx=0;entryDy=0;exitX=0;exitY=0.5;exitDx=0;exitDy=0;" parent="1" source="rPDnVV_8i12kOEM-_KZa-17" target="rPDnVV_8i12kOEM-_KZa-9" edge="1">
          <mxGeometry width="50" height="50" relative="1" as="geometry">
            <mxPoint x="102" y="517" as="sourcePoint" />
            <mxPoint x="152" y="467" as="targetPoint" />
            <Array as="points">
              <mxPoint x="246" y="632" />
              <mxPoint x="246" y="477" />
            </Array>
          </mxGeometry>
        </mxCell>
        <mxCell id="rPDnVV_8i12kOEM-_KZa-21" value="j" style="ellipse;whiteSpace=wrap;html=1;aspect=fixed;" parent="1" vertex="1">
          <mxGeometry x="298.9" y="667" width="30" height="30" as="geometry" />
        </mxCell>
        <mxCell id="rPDnVV_8i12kOEM-_KZa-22" value="" style="endArrow=classic;html=1;rounded=0;entryX=0;entryY=0.5;entryDx=0;entryDy=0;exitX=0;exitY=0.5;exitDx=0;exitDy=0;" parent="1" source="rPDnVV_8i12kOEM-_KZa-21" target="rPDnVV_8i12kOEM-_KZa-7" edge="1">
          <mxGeometry width="50" height="50" relative="1" as="geometry">
            <mxPoint x="-28" y="627" as="sourcePoint" />
            <mxPoint x="262" y="427" as="targetPoint" />
            <Array as="points">
              <mxPoint x="236" y="682" />
              <mxPoint x="236" y="417" />
            </Array>
          </mxGeometry>
        </mxCell>
        <mxCell id="gXjHrzIVwWU5jrJc0VjO-39" style="edgeStyle=orthogonalEdgeStyle;rounded=0;orthogonalLoop=1;jettySize=auto;html=1;exitX=1;exitY=0.5;exitDx=0;exitDy=0;" edge="1" parent="1" source="rPDnVV_8i12kOEM-_KZa-25" target="gXjHrzIVwWU5jrJc0VjO-11">
          <mxGeometry relative="1" as="geometry" />
        </mxCell>
        <mxCell id="rPDnVV_8i12kOEM-_KZa-25" value="flag = false" style="rhombus;whiteSpace=wrap;html=1;" parent="1" vertex="1">
          <mxGeometry x="477" y="392" width="100" height="50" as="geometry" />
        </mxCell>
        <mxCell id="rPDnVV_8i12kOEM-_KZa-38" style="edgeStyle=orthogonalEdgeStyle;rounded=0;orthogonalLoop=1;jettySize=auto;html=1;exitX=1;exitY=0.5;exitDx=0;exitDy=0;entryX=0;entryY=0.5;entryDx=0;entryDy=0;" parent="1" source="rPDnVV_8i12kOEM-_KZa-35" target="rPDnVV_8i12kOEM-_KZa-37" edge="1">
          <mxGeometry relative="1" as="geometry" />
        </mxCell>
        <mxCell id="rPDnVV_8i12kOEM-_KZa-39" style="edgeStyle=orthogonalEdgeStyle;rounded=0;orthogonalLoop=1;jettySize=auto;html=1;exitX=0.5;exitY=1;exitDx=0;exitDy=0;" parent="1" source="rPDnVV_8i12kOEM-_KZa-35" target="rPDnVV_8i12kOEM-_KZa-17" edge="1">
          <mxGeometry relative="1" as="geometry" />
        </mxCell>
        <mxCell id="rPDnVV_8i12kOEM-_KZa-35" value="x&lt;sub&gt;ij&lt;/sub&gt; != 0" style="rhombus;whiteSpace=wrap;html=1;" parent="1" vertex="1">
          <mxGeometry x="273.9" y="511.5" width="80" height="60" as="geometry" />
        </mxCell>
        <mxCell id="rPDnVV_8i12kOEM-_KZa-37" value="flag = true&lt;br&gt;&lt;div&gt;&lt;span style=&quot;background-color: initial;&quot;&gt;multiple&lt;/span&gt;&lt;span style=&quot;background-color: initial;&quot;&gt;&amp;nbsp;&lt;/span&gt;= multiple * x&lt;sub&gt;ij&lt;/sub&gt;&lt;/div&gt;" style="rounded=0;whiteSpace=wrap;html=1;" parent="1" vertex="1">
          <mxGeometry x="376" y="519" width="140" height="45" as="geometry" />
        </mxCell>
        <mxCell id="rPDnVV_8i12kOEM-_KZa-41" value="" style="endArrow=classic;html=1;rounded=0;" parent="1" edge="1">
          <mxGeometry width="50" height="50" relative="1" as="geometry">
            <mxPoint x="446" y="564" as="sourcePoint" />
            <mxPoint x="313" y="594" as="targetPoint" />
            <Array as="points">
              <mxPoint x="446" y="594" />
            </Array>
          </mxGeometry>
        </mxCell>
        <mxCell id="gXjHrzIVwWU5jrJc0VjO-9" style="edgeStyle=orthogonalEdgeStyle;rounded=0;orthogonalLoop=1;jettySize=auto;html=1;exitX=0.5;exitY=1;exitDx=0;exitDy=0;entryX=0.5;entryY=0;entryDx=0;entryDy=0;" edge="1" parent="1" source="gXjHrzIVwWU5jrJc0VjO-11" target="gXjHrzIVwWU5jrJc0VjO-13">
          <mxGeometry relative="1" as="geometry" />
        </mxCell>
        <mxCell id="gXjHrzIVwWU5jrJc0VjO-11" value="i = 1, N - 1" style="shape=hexagon;perimeter=hexagonPerimeter2;whiteSpace=wrap;html=1;fixedSize=1;" vertex="1" parent="1">
          <mxGeometry x="582" y="444" width="100" height="40" as="geometry" />
        </mxCell>
        <mxCell id="gXjHrzIVwWU5jrJc0VjO-12" style="edgeStyle=orthogonalEdgeStyle;rounded=0;orthogonalLoop=1;jettySize=auto;html=1;exitX=0.5;exitY=1;exitDx=0;exitDy=0;entryX=0.5;entryY=0;entryDx=0;entryDy=0;" edge="1" parent="1" source="gXjHrzIVwWU5jrJc0VjO-13">
          <mxGeometry relative="1" as="geometry">
            <mxPoint x="630.9000000000001" y="558.5" as="targetPoint" />
          </mxGeometry>
        </mxCell>
        <mxCell id="gXjHrzIVwWU5jrJc0VjO-13" value="j = 0, i - 1" style="shape=hexagon;perimeter=hexagonPerimeter2;whiteSpace=wrap;html=1;fixedSize=1;" vertex="1" parent="1">
          <mxGeometry x="580.9" y="504" width="100" height="40" as="geometry" />
        </mxCell>
        <mxCell id="gXjHrzIVwWU5jrJc0VjO-14" style="edgeStyle=orthogonalEdgeStyle;rounded=0;orthogonalLoop=1;jettySize=auto;html=1;exitX=0.5;exitY=1;exitDx=0;exitDy=0;entryX=0.5;entryY=0;entryDx=0;entryDy=0;" edge="1" parent="1" source="gXjHrzIVwWU5jrJc0VjO-15" target="gXjHrzIVwWU5jrJc0VjO-17">
          <mxGeometry relative="1" as="geometry" />
        </mxCell>
        <mxCell id="gXjHrzIVwWU5jrJc0VjO-15" value="j" style="ellipse;whiteSpace=wrap;html=1;aspect=fixed;" vertex="1" parent="1">
          <mxGeometry x="618.5" y="619" width="30" height="30" as="geometry" />
        </mxCell>
        <mxCell id="gXjHrzIVwWU5jrJc0VjO-16" value="" style="endArrow=classic;html=1;rounded=0;entryX=0;entryY=0.5;entryDx=0;entryDy=0;exitX=0;exitY=0.5;exitDx=0;exitDy=0;" edge="1" parent="1" source="gXjHrzIVwWU5jrJc0VjO-15" target="gXjHrzIVwWU5jrJc0VjO-13">
          <mxGeometry width="50" height="50" relative="1" as="geometry">
            <mxPoint x="419" y="564" as="sourcePoint" />
            <mxPoint x="469" y="514" as="targetPoint" />
            <Array as="points">
              <mxPoint x="566" y="634" />
              <mxPoint x="566" y="524" />
            </Array>
          </mxGeometry>
        </mxCell>
        <mxCell id="gXjHrzIVwWU5jrJc0VjO-17" value="i" style="ellipse;whiteSpace=wrap;html=1;aspect=fixed;" vertex="1" parent="1">
          <mxGeometry x="618.5" y="669" width="30" height="30" as="geometry" />
        </mxCell>
        <mxCell id="gXjHrzIVwWU5jrJc0VjO-18" value="" style="endArrow=classic;html=1;rounded=0;entryX=0;entryY=0.5;entryDx=0;entryDy=0;exitX=0;exitY=0.5;exitDx=0;exitDy=0;" edge="1" parent="1" source="gXjHrzIVwWU5jrJc0VjO-17" target="gXjHrzIVwWU5jrJc0VjO-11">
          <mxGeometry width="50" height="50" relative="1" as="geometry">
            <mxPoint x="289" y="674" as="sourcePoint" />
            <mxPoint x="579" y="474" as="targetPoint" />
            <Array as="points">
              <mxPoint x="556" y="684" />
              <mxPoint x="556" y="464" />
            </Array>
          </mxGeometry>
        </mxCell>
        <mxCell id="gXjHrzIVwWU5jrJc0VjO-20" style="edgeStyle=orthogonalEdgeStyle;rounded=0;orthogonalLoop=1;jettySize=auto;html=1;exitX=0.5;exitY=1;exitDx=0;exitDy=0;" edge="1" parent="1" source="gXjHrzIVwWU5jrJc0VjO-22" target="gXjHrzIVwWU5jrJc0VjO-15">
          <mxGeometry relative="1" as="geometry">
            <mxPoint x="630.9000000000001" y="618.5" as="sourcePoint" />
          </mxGeometry>
        </mxCell>
        <mxCell id="gXjHrzIVwWU5jrJc0VjO-22" value="x&lt;sub&gt;ij&lt;/sub&gt; = multiple" style="rounded=0;whiteSpace=wrap;html=1;" vertex="1" parent="1">
          <mxGeometry x="582" y="559" width="103" height="33" as="geometry" />
        </mxCell>
        <mxCell id="gXjHrzIVwWU5jrJc0VjO-25" value="Конец" style="rounded=1;whiteSpace=wrap;html=1;arcSize=50;" vertex="1" parent="1">
          <mxGeometry x="276" y="850" width="80" height="40" as="geometry" />
        </mxCell>
        <mxCell id="gXjHrzIVwWU5jrJc0VjO-32" value="Вывод: ненулевых&amp;nbsp;&lt;div&gt;элементов в матрице нет&lt;/div&gt;" style="shape=parallelogram;perimeter=parallelogramPerimeter;whiteSpace=wrap;html=1;fixedSize=1;" vertex="1" parent="1">
          <mxGeometry x="226" y="717" width="180" height="45" as="geometry" />
        </mxCell>
        <mxCell id="gXjHrzIVwWU5jrJc0VjO-34" value="" style="endArrow=classic;html=1;rounded=0;entryX=1;entryY=0.5;entryDx=0;entryDy=0;exitX=0.5;exitY=1;exitDx=0;exitDy=0;" edge="1" parent="1" source="rPDnVV_8i12kOEM-_KZa-25" target="gXjHrzIVwWU5jrJc0VjO-32">
          <mxGeometry width="50" height="50" relative="1" as="geometry">
            <mxPoint x="476" y="777" as="sourcePoint" />
            <mxPoint x="526" y="727" as="targetPoint" />
            <Array as="points">
              <mxPoint x="526" y="740" />
            </Array>
          </mxGeometry>
        </mxCell>
        <mxCell id="gXjHrzIVwWU5jrJc0VjO-35" value="+" style="text;html=1;align=center;verticalAlign=middle;resizable=0;points=[];autosize=1;strokeColor=none;fillColor=none;" vertex="1" parent="1">
          <mxGeometry x="496" y="437" width="30" height="30" as="geometry" />
        </mxCell>
        <mxCell id="gXjHrzIVwWU5jrJc0VjO-36" value="" style="endArrow=classic;html=1;rounded=0;exitX=0.5;exitY=1;exitDx=0;exitDy=0;entryX=0.5;entryY=0;entryDx=0;entryDy=0;" edge="1" parent="1" source="gXjHrzIVwWU5jrJc0VjO-32" target="gXjHrzIVwWU5jrJc0VjO-25">
          <mxGeometry width="50" height="50" relative="1" as="geometry">
            <mxPoint x="206" y="927" as="sourcePoint" />
            <mxPoint x="256" y="877" as="targetPoint" />
          </mxGeometry>
        </mxCell>
        <mxCell id="gXjHrzIVwWU5jrJc0VjO-40" value="-" style="text;html=1;align=center;verticalAlign=middle;resizable=0;points=[];autosize=1;strokeColor=none;fillColor=none;" vertex="1" parent="1">
          <mxGeometry x="563" y="385" width="30" height="30" as="geometry" />
        </mxCell>
        <mxCell id="gXjHrzIVwWU5jrJc0VjO-41" value="+" style="text;html=1;align=center;verticalAlign=middle;resizable=0;points=[];autosize=1;strokeColor=none;fillColor=none;" vertex="1" parent="1">
          <mxGeometry x="341" y="515" width="30" height="30" as="geometry" />
        </mxCell>
        <mxCell id="gXjHrzIVwWU5jrJc0VjO-42" value="-" style="text;html=1;align=center;verticalAlign=middle;resizable=0;points=[];autosize=1;strokeColor=none;fillColor=none;" vertex="1" parent="1">
          <mxGeometry x="282" y="564" width="30" height="30" as="geometry" />
        </mxCell>
        <mxCell id="gXjHrzIVwWU5jrJc0VjO-48" style="edgeStyle=orthogonalEdgeStyle;rounded=0;orthogonalLoop=1;jettySize=auto;html=1;exitX=0.5;exitY=1;exitDx=0;exitDy=0;entryX=0.5;entryY=0;entryDx=0;entryDy=0;" edge="1" parent="1" source="gXjHrzIVwWU5jrJc0VjO-46" target="gXjHrzIVwWU5jrJc0VjO-47">
          <mxGeometry relative="1" as="geometry" />
        </mxCell>
        <mxCell id="gXjHrzIVwWU5jrJc0VjO-46" value="" style="shape=image;verticalLabelPosition=bottom;labelBackgroundColor=default;verticalAlign=top;aspect=fixed;imageAspect=0;image=data:image/png,iVBORw0KGgoAAAANSUhEUgAAAU4AAABkCAYAAADpE9mNAAAVcklEQVR4Ae2cz5HtNBPF3wuBGEiBPUtCIIaXAkUCZEAGRMCCNQmQwMuAPVVs5qvfUGe+Ho1kd8uSrn3dqrrle22p/xypj1ttz3x6yZYIJAKJQCIQQuBTqHdn5++///7l8+fP+UkMcg3kGrj8Gvj3339fphPnP//88woUx2yJQCKQCFwVgT/++OOFJJA2nTitsqsClnYnAolAIvDzzz+/8KFNJ06rLKFPBBKBROCqCJBtkgjSphOnVXZVwNLuRCARuDcCZclxKnGWyu4NfXqfCCQCV0WgLDlOJc5S2VVBS7sTgUTg3giUJcepxFkquzf06X0ikAhcFYGy5DiVOEtlVwUt7U4EEoH7IlArOU4jzpqy+0KfnicCicBVEaiVHKcRZ03ZVYFLuxOBROC+CNRKjtOIs6bsvtCn54lAInBVBGolx2nEWVN2VeDS7kTgrgh8+vTpxX5+++23D1D88ssv7/p89913H/qMPvH333+/oPebb74ZLfqdvFbJcQpxtpS9syh/JAKJwOkRgKC+/fbbN2L84YcfqjaLPLnOmJkN8oYwRegzdbVKjlOIs6VspoMpOxFIBOYgABmSRYqovn79+kHRr7/++nr9999//3Bt1AlkQ+KQpiXzUfJrclolxynE2VJWMyzPJQKJwLkRgDDJKEWeP/300weDOUe/WdnmX3/99UqYEDTtzz//fCPyD8YMPNEqOU4hzpaygf6kqEQgEViAgAiKbE9ZZa2uqKx0pkmWlGUXZD2rbZUch2vdUjbLwZSbCCQCcxBQ7ZLtOR9t18uHRJz/8uXLHCMqUlcQ51bJcThxbimr+J+nEoFE4MQIkEnaDPPHH398JU+OaiKxkkx1fcZROmdmnFslx+HEuaVsBoApMxFIBOYhAGlakoQclXXqIZHNSmuWqH/kiMyttoI4t0qOw4lzS9kWEHltHQIsOrZVKvav03wdTSIDBTtPcWtN13Wc+VRZ+pk/MsE9csEm5pi5Zky08UAGGXogo/GQqT1fZqXqp6OwiRz3fJtNnHslx6HEuadMQObxMQhQXGeRs4A5rgjyx3g6Rqsehijga+QDpiKS2XiS4WmrjE175AIK2GTn3D5g2UNJ/kOgtukJum4m2GKzUtt31vfZxLlXchxKnHvKZoGYcvcRIOgU4CtrUfuWnbeHglOZeevhB7jSZ1aD7NANQckWL3HKJm2xsVVbbF1rHSFD+peN8ejnI7llVlqOGf1bc4MNM9peyXGo1j1lMxxMmT4EFHCrMwOfdefspe06WZuIoszY+M212ruNo7xizsgaRXjKID0Zp7XBkq893/oOaaKr1mSDXkSvZeO1caPOzSbOvZLjUOLcUzYKtJQTQ0BZAQGu4ItJuGdvyEGZJCQCfmVmpQCeuU0vyVqkFSXOMlPcmlXVN1s67JoCl9VNuKO7xOeoLZ6S4zCPPcqOOpTj+xBQVtDKHvqkPv8oglLbc2VrquvJe2WlK29IvcSJzWSv+FX6IX90lL9bOxTdTFavK0hdfuAL2f5I/D0lx2HE6VGmScnjOgRsltHKHtZZcx1NymiUYSoDI1DtwxJIY4+ERnt9hDhF9PjRIhtLSvRrEaMeEq1aV/Ibm1qfEbZ4So7DiNOjbPQCSnn7CNgtFWTQ0wgwgkQLtxVIPbJnjlFwYS8EGNnS0Z/xliSVuSsLxXb62N/WH5Gv7PAe9+ZJ89BDEtYm1ka2jwh4So7DiNOj7KOJeWY2AjbD2AvImi0az7aMQIuQT03e6nOQPj5gv3zw2EDWRX/bRKY6LxJSVmr78l3XvYSpfnvzNIo4e4i39PHZfntLjkOI06vs2UC+gj9229XamrX8sKR5NcIsfbJbbc+DHMgR7GwDA5EbNxHhY7NS23/W9yPEaXEo/Ztl75XkekuOQ4jTq+xKAD6LrQoyAj7SIFlLEpGxZ+2rmtxeTVLkUssk7UOTWla6wnfNaW/GqHlFTrb3CHhLjrFoeq/j7ZdX2duA/LIMAQVZlDhFMtFxyxzrUCRCxKetrFNb8tqW2W6/IeBHkI/mtIc4LQaPsL1j2pYO8ZYchxCnV9lSBFLZKwIKMsiiRgQtmPTC/LMFFzjwaT3QAQ+VN1rY6CERcnrIqyXXe15zys0t2izxP9vcRrEo+0dKjoeJM6KsNDR/z0dAQRYlThHMswXX3g2BjIz6Jv7zvdaUkUYxrcmKnKPGav+KCQLfypxrspM4a6j8dy5ScjxMnBFlbZPzyiwEVJMjyCNBJuLsyWpm+TJCrm4kejJuZdptrPyvZen2IZEdP+u7JTvZVTt69FvSf7a59fi/1SdScjxMnBFlW0bntTkI6MkvgebdVloCebbgEnGCxx1bz3q4C06RkuPh1RNRdpcJOJOf9gV4Lwla4nzWrfpdiVP1W/yP7EDOtKZn2BItOR4izqiyGQ6nzG0E7DYvQoIEFp/ImG1LznFVfu29knQOa8dbYTPuWhlivMZrSIyWHA8RZ1TZNSB8LittPS5CgiKYWi3wqgj1YnFVf2t22zcCatfvei5acjxEnFFld52UR/stEuTobTYz8Y45ez+bfW+9jnR2P47Yp7XwTDfEI3hobLTk6I8kaTDHqDIzNL8uRECv4ESI0z6Nb72Ws9CFIarsqzzeB2VDFJ9IiIgzsvs4kflTTOkpOXYTZ4+yKV6n0F0ElD1Gsgz79NVTC2MbzMMndBCcrQdRkJe2i6uDN+rTLrAX7PAo7M8MVU/JsZs4e5S1wFOw6W7IkXM8AfQEbUvuGc6Trcm/LaLQ084Z2Z0yzi39JVZRkhE52zks/22ZfcJPv9VZn32H8errqpwv72/tJFgT2f5DoKfk2E2cPcpaE6VgI/j00Z2Ra1d+bcLW1fClJBNhIuIZHdD2gQjE4W2WOPfG0JebA6TPx86nxgoHAlc2rZ5Xa9tonOXn2Y+aB+Yo+t+yzu5br309Jcdu4uxR1nJMgVZe190REr1q00JV1skR4ijbLOJUltXSW9qh37KnteVWP45ky5YElT0zrzT8RT/z+egmv85gy6OwUFx55vZRNq7S21ty7CLOXmUtMFrEqcxEAdgaf+bzIk4CVoRS26IqoEdmQsgSYXvlkoUosLCpp4msmTeyPOSwNazdMHrkHxmDDSpdMA9nsOmIPz1j8VnrDQzunHn2lhy7iLNXWWuSo8RpF7/GciQgWsHAGK7ZEsBWf9lq+1tdfPcsOEuc9JeMcqwWspfgZF/tSDlA5ABx2myw1l/nwEf29ZImsuyWGDnYwLmzNNaCndcRmJ/Ft4gdFgPm/o6tt+TYRZy9yloTo2AtrytzKbdVIiMmngnnw7ZDC6EMekhKmRdHrvORXkiGYKo1+lg96JIeT8DJVtmEncgsfZI9Hpk1O+25XuJEBlgp4yxttDr2vgtbjq26bkuG8PUEs/BFT2sOrR766KaCfM8YO/4ZvlsMWI/lTfwZfPT60Fty7CLOXmUtZxRkLGR9tK2FUMrFrWARGUku/SRL5ziKlCACK4sFY4PIjuG7MqdSj+R5SK60Ff0icTs+IrO0s/Ub+TVdrf72vOzprYNpPPojzc6hxaclg/XCnEO2nia7jtwUPHrO3EexxfHO7UjJMUycR5S1JklkVzsSEGXGUpKR5CrobBBBjsglgC1pagzb2Fbg6RrBaZuCzxPYNVsV7MhRi8jUGM8R7Lb8b8mQjYztaQpOxtdwb8kUXt5x0uMhAd0Ike2Zu5aNVz5v8b1zpskcHik5hqPiiLLWgmMh87GNYCPolTHZOp0mH4IkwPloq845W08TcWwFVk0/tog8SuKOkJxstSSJbOxEr2RHZFqc9r7rZoKu3teRoiSjG45wjY7f86n3uko/2HUWm3p96R2nMoxNLnplXX3ckZLje7ZyIHFEWUu8Aqx2XcRnJ1pkpHH2SD+REfJEfhxbTePL6yKz8s6s857gk60lcYpc5FdEZmnn3m+VI0obtsYJN7Dx+ClZYMXNTrVcxm9hr3Erjr0+rbBtlY6etbDKttV6jpQcw8R5RFkLmBZx0V9bbfqobZGRMlRlncoyohmnMjURm3RzjJBcy1YrB6KPyLS2eL5LNth4m7bA4C4sPWMJTD60SJBaokWn3WHU9GrN6FjrU57TzYoxZyHz0sbZv4VX5CY626ZHyD9acvw/GzmsP6qspUKTWbsu4rFBr3O1yVdWocBQXatGgOhTMCnYZYMIV3J0nqOICDv22patuoZvIhmPzD2d5XXJBmdv6xnDNhBflKFrW4he1Tk5Ilt9rD3CnP6167av5NC3tg5sX30X3oy568MhfOfTigdh9ezHoyVHfyQdLKZuTYQms+xjg8MudAVALWBEana7ziKpBQukqmu2P3ohAD58L5t0eEhuy1bkWnLBxlKmMjFIpbcJX/zxNo3ZCjD5BsnJTpspgqnkcAMCSzJZiLPWdBPz2ql5qN3cavLRL3tqa6c25tnOab2Dw53b0ZJjCL2jyloTZRczC1ofnSfQLIEpYFkEBI0+WhRlYEKQBCPyOCKfPpJvSRkCkByOssUeJQsZnN9qsrXVD9KRPOwpiZNxnPeSQ2lLL1kIm5bd6MEm9eNobz5cR7f1jT78bm39JW9Lp/VPsi1Z2+u177KXub1j03oCh72s/pnxOVpyDBHnUWWtiVAAaFHrCDERTJY0kcFvS3x7/RnDIoEgrS4WURnsdmFJ7t6x5RfnVSrYqrEqM8O2cjHLntLOLZ32mogbH5DlabJ5b4yyZUioZR/nhTn6W6SJXfLVc5MAJ81LidmWj3bdbPV71mvCGOzKm/Sz+lz6NaLk6CbOEcpKB874WwvLY5syJE/fnj4iB2zqbdr+Eihk055midNDYh6Znj4iWE9Ayy/GRJrmFzyiTUQdyXCjOmb315rFlyPln9l2zpR/tL6Jbe7VM0LZTDBGyVZgeeRpEXr69vRRhhzJqEo9spFAiZCgSMKWMUrZI39bsi53GDU98it6U9H8RrfqNnM/Mh81X1aeE27R9bDSxtm6RpQc3cQ5QtlsQEbIV2B5ZGkRevpG+yjbbG2BvfL00IZAicgScUaJyWtX2U9P1L2EpnmK3AzQiXx8i/ol+6IZbunn3m9uGrphYif6+D2KrJWpI3vVTXHP59XXR5Qc3cQ5QtlqgHr0UYv0BsdM4uyxvTZGBEOgeLbAkqFaYJRgND56JIgjwcwc0T+6bWZMRE/UjyP9IUf8gtw1Vxw5x2erPuzVazPnVXPrtW1Fv1ElRxdxjlK2ApjU8R6BXuK0mep7iXN+yU6bQbaIwm7rI5mYHRcl3Dlev5cqDErbdIPmZna03Z04R5UcXcQ5StnRSc/xcQQUjGRZntqhNKhUwLjIFl/jo0f9pRKEjZ38bj3Mwh7s8m7rZYtuBpFxFj90KhOUzFFHkTqZZdnsXLRuJuWY1m+wxQ8++Ha3Nqrk6CLOUcruNkln8NcGftQeZToQTYR0o3roDyGgRwG9RVAiwK1XvEobkA8pIb/M6Mq+5W+VERg7qwnrFpmhm4/NyHttkayWrl65Vxg3quToWgmjlF0B2Gez0RJnZFsrHBTQkA6Z3mwCld6to+qvntdp8BkfsF8+bMmuXRMGLaIREUWOJQEq427p0DwefaBjt+pHZdWwOvO5kSXHXeIcqezMoD6rbQp6gnori9vyH/Ihy1PwtoJ7S8aoa3aruXcjEJFhLyTbS/oitVbpQHoix5I4hW2LzHT9KPaWOEsbRs3RWeWMLDnuEudIZWcF9JntUj3wCHGeCR/dCI4SSMQnlRBm1npFjC0y0/WjflOmEMFHSxYRzM7Yd2TJcZc4Ryo7I5jPbhNZmQKlFZRXwYBsSVvu3uwx6qvNcI8+mNnSLWJs1W11/Shx6sbDmtjL2GWvarxHdUveo44jS467xDlS2aMAu7teZUytoDw7Pqpp4gdBvIo0wcVubWfitEeMut4qF3htk5zIq03C/8o33tElx03iHK3MO7nZbywC+qsXsoyVpDPWi8dIU4a2lW0po48cSxLSmwItPbr5eR6ItZCyu49I2UF+zd7aI18kjU6+R+xs+c350SXHTeIcrWzLsbw2FwEF3tGMZa6V55O+92AIi0UskWNJnLb2WKJgywXe7XUpg9/yJZJt1uTMOKcbB0f85aMSQeuBWcSO0SXHTeIcrSziaPYdi4B9j3HUXXysheeURk0VQlyBmW5upS5+Y8MRAlHmjD8za7U9s6hySEnokKfwP5rtji45bhLnaGU9oOaYcQgQMNoKkX0cXYzjLDunJLu1PZLpeb1T1glZQCY0PRBj3iCSaEOmrWt6SVO2KIueuVNRJlwrQyjrpE9vm1FybBLnDGW9jue4sQiQwbAQleGMlf480kQeENmqBlGKSCAt5gjy6CFNOx5fog2SFXGWWXBU1lZ/6dDNwvZVpkyf3jaj5Ni0ZoayXsdzXCLwCARUdzuS7TzC7lE6IWuRWi1Theh0PXK0BGnJ2Z6XD1ZHb9Y/o+TYJM4ZygRGHhOBKyCgssbMbOvMOFjSqtlpr/cSp5VRI0Z7ne89bUbJsUmcM5T1OJ1jEoFHIKCAZZves01+hM2jdWqb3HpFaoQ+4Qzx1pq93kOcs0qOVWtnKasBk+cSgbMhQOajbLMnWM/mT689qrWWr071yquNs8S4Vw7omYtZJccqcc5SVgMuzyUCZ0FANU2yTEijFshnsXWFHeBAJtjzYMlrnyXOGjHa6z2Z/6ySY5U4Zynzgpn9EoFE4LEI2Ic2tdoj1llS661x2gdQNeLUO6y9bzbMKjlWiXOWsscuhdSeCCQCXgREWLwO1WojiBPZKovUSgLaBfS8/D+z5PiBOGcqa01Ank8EEoFzIVB7MDSrdLFF0nrXuJX1bqE2s+T4gThnKttyMq8lAonAeRDQP4YhG6RBpDxd76kzerxS1qmX/dGjvxrqfR1sZsnxA3HOVOYBMPskAonA4xGAuPSnmmR9veTl9QR9kLMyTGqm6D/yYGpmyfEDcc5U5gUx+yUCiUAicASB2SXHd8Q5W9kRIHJsIpAIJAJeBGaXHN8R52xlXqezXyKQCCQCRxCYXXJ8R5yzlR0BIscmAolAIuBFYHbJ8R1xzlbmdTr7JQKJQCLQi8CKkuMbca5Q1gtEjksEEoFEwIvAipLjG3GuUOZ1PPslAolAItCLwIqS4xtxrlDWC0SOSwQSgUTAi8CKkuMbca5Q5nU8+yUCiUAi0IPAqpLjK3GuUtYDRI5JBBKBRMCLwKqS4ytxrlLmdT77JQKJQCLQg8CqkuMrca5S1gNEjkkEEoFEwIvAqpLjK3GuUuZ1PvslAolAIhBFYGXJ8RPK+E8knz9/zk9ikGsg18Cl1wBJ4Ir2mnGuUJQ6EoFEIBF4FgT+B1m11GFf+16xAAAAAElFTkSuQmCC;" vertex="1" parent="1">
          <mxGeometry x="213" y="160" width="200.4" height="60" as="geometry" />
        </mxCell>
        <mxCell id="gXjHrzIVwWU5jrJc0VjO-47" value="" style="shape=image;verticalLabelPosition=bottom;labelBackgroundColor=default;verticalAlign=top;aspect=fixed;imageAspect=0;image=data:image/png,iVBORw0KGgoAAAANSUhEUgAAAU4AAABkCAYAAADpE9mNAAAU+klEQVR4Ae2czZHdthKFpRAcg1PQ3kuHoBiUgssJKANn4Ai88NoJKAFl4L2rvJlXZ54/qS8GINH44yXZqBqDlwT65wA4aDQpv3uJEggEAoFAIOBC4J2rdWPjn3766eX9+/fxFxjEHIg5cPo58O+//75MJ85//vnnFSjVUQKBQCAQOCsCf/7554uCQJXpxGmVnRWwsDsQCAQCgV9//fVFfyrTidMqC+gDgUAgEDgrAoo2FQiqTCdOq+ysgIXdgUAgcG8E0pTjVOJMld0b+vA+EAgEzopAmnKcSpypsrOCFnYHAoHAvRFIU45TiTNVdm/ow/tAIBA4KwJpynEqcabKzgpa2B0IBAL3RSCXcpxGnDll94U+PA8EAoGzIpBLOU4jzpyyswIXdgcCgcB9EcilHKcRZ07ZfaEPzwOBQOCsCORSjtOIM6fsrMCF3YHAlRB49+7di/37/fff37j3+fPnhzYfPnx402b0jb///vtFen/44YfRopvllVKOU4izpKzZ+ugYCAQCwxAQQf3444/fiPHnn3/OyoY89Vx9ZhaRtwgTQp+pyyO7lHKcQpwlZR6Do20gEAjMQ0BkqCgSovr69esbZb/99tvr8z/++OPNs1E3JFskLtK0ZD5Kfq+cUspxCnGWlPU6Ef0DgUBgDAIiTEWUkOcvv/zyRrDuqd2saPPLly+vhCmCVvnrr7++EfkbYw66UUo5TiHOkrKDfA+1gUAgYBCAoBTtEVXm8opEpabr8EtLytglsn6GspVyHG7hlrJnACNsCATujgC5Sx3P9cdxPX1JpPufPn1aBtezEedWynE4cW4pWzYCoSgQCASKCCiStBHmx48fX8lTNQUSS8mU5zNqdD5LxLmVchxOnFvKZoAdMgOBQMCHgEjTkqTIkaiTl0Q2Ks1JF/nSp7ZWn63ybMS5lXIcTpxbyrZAi2d9CGjS6VhFsr9P2jV724XJYocorMcpKeRenNj2I65lh8Zvj1xkt8ZYbeWPt+iFjGTwQob+IlN7X3bYqJR21ClG4LlV7/lmxwc9R9V7KcehxLmn7CgQrqxXyXUmseqZn45cAUeIgwWuyCpXwHQ2aWr8iO5k0x65yFaNMfapti9Ycr7Ye7wMEg628AZdnwSpyBYbldq2s66fiTj3Uo5DiXNP2SzA7ypXUQqRwspc1NnxFikQmUMUqU/k/TyklMrY+y3C1PjxHWMtcSKXI7Zk5CJn2tlafuUiSfWXfv0hN41KrZwZ189EnHspx6HEuadsBth3lsniXx0ZnBlzFqeiNogiF6ULW/3NKiIlEabsUSHqrIk4rU06ssuPWltFmiUdRLGySzKxzeqbec3YSPfRZS/lONTCPWVHg3El/UQFmmS10caV/G/1BYJSJElUmdt4hOuKYzp+YFeJ1GiX1mmkmD63v0lTSFeu2Dl1BHlZ4pwZ6ed8t/dqUo7DiLNGmTUurvsQICrwLrQ+refvLbyEnYolCrv5sID1fFVpJU7ZxwaAXyWbiU5zGwV9FJGKNFfPK5E6frBp2THBvhV1TcpxGHHWKFvh9B102CijFD3cAYcWH7UoLXFAFDafB4mtXLjobCEs+sq3ks2WlLaIkZdEq+aV/JU9W3+rbGE+1aQchxFnjTIMi7oPARspteahtMC0SJi4LQu2z4u23iww2Suy8xzpOKpakiQKs9GaZNvf1lKiUeyorffGCfJrGQdr08oo2eJypeualOMw4qxRdiVwj/SFRaZFu7cgc3bSX9GWFpqHfHLyVt8T6csH2Y8PNTaIMIWZ/RQHMrX3dW2jUivbkpTa1f7tjRNj0kuckhOlHYHalOMQ4qxV1u5O9LQI2GNX6Whm29trFqgI52yEaf3QtSW93JvxtL1wk99p4esEPioXGdqoNG0/4zfj0kKcFocS4c+w+Yoya1OOQ4izVtkVgT7CJy0uIh2PfpEs/a5ypCMnVzpaW3xEmjliIfWh57mo1MqYdd1DnLKJcW0h3lk+nVFubcpxCHHWKjsjkM9ocytxQjJaZFcpNtraijpplzvKKvIWaQoXEfAR+PQQJ77J7iDOvpldm3IcsoJqlfW5FL1BwBLnXu6MPqo5kl5tcYkw9KejdqkQSZbw4iXRUeQDcdZ+yG79tHnXq42t9XP2tSfl2E2cHmWzHb+L/FbihGCutrj2NgRFlLQp5S5t1JaLSmfOLREfka7GyPvCLohzzOh4Uo7dxOlRNsa9kGKjo63jaYoUxKkj+5UKG0nuxY/85BiO/yVihFxLUelozLBnq66xhWhacq42tqMx35LnSTl2E6dH2ZbR8aweAY51WiglEkil2YjqaosL4hQedywt8+GOOO357Ek5ds80j7I9w+N5HQK8BfZEGJY4r3pUvytx2s/TPCeQutl2j1belGMXcXqV3WMI5nvZmtMSsejvasSJXzWfJM0fnfUabMRdc7Rfb+Hza/SmHLuI06vs+eE7h4V62QFZeEiQPqVc4Dm8f7SyFYtHKef+ZV8snduT46z3phy7iNOr7DhYrqcZElRdW2xkUtvn2dvZ6Hvrc6Rn96PHPubClTbEHjxa+npTjvWrLmONV1lGRNxqRIA3wB7itG/jlfO8QlFOD+KofVF2Bb+tD/jvOX3Y/ne/bkk5NhNni7K7D9BI/4kePVGGfftamwvTpy4cBaVTR+O0iISxx0PkqZyW3y0+teh55j52fJ7Zzme1rSXl2EycLcpKwKXf2Wnx6Z7eFtYu8JLsq94n4vREGV6Sse2JatLjsEjTjp/HnhFjY79hvOtc4SShORHFj0BLyrGZOFuUlVxiUWrR8ccuqmfxicUjcvaFSOlfwjz2+P8vS4S55/YeuUP+FYsdD9rJDpGmFqyuVa/+RtR+ZnVX4mSstFa8/7csxvLOdUvKsZk4W5SVBgfiTJ+zk2rRRvmOAFGWSCt3dP7e8vFKm5KwriE36bDt0Kn+EJTkQZqPmtb+wq80Gl5rxbHaWCt2zI616BzaW1OOTcTZqqwEZYk4bWRV6nu3+yItjsYQ2B4GikJYWCKZlmIjO5GoolfZoftHF6JdzSPZ5dlMjrZ9lH75zAYiDCLyrEO2NeXYRJytykqueImTRZz7fyumOvhXFXaB24WGbtWKnkoLD/KBtNReE1VH2a1ij7hWl649k1t6ZJ/6yYba9IX8QW8raeIfvrNA93yn34paY2qxrt1UVti2UofFQGMfZRuB1pRjE3G2Kiu5wMJOn3M8TI9gWhTqU0MELHK7kOivSabJpT8dcZh0qVz7yYva6DkkJjtS+6wfem71SBd6rE22T+66lTglC9LfszWn194DyxY5noiX8ZGemujRboTCt6aP9esK1xYDzWXPpnwF/1t9aE05NhFnq7KSc1og+oPEVBMparGmC4GFlRJcTj6L3ZJUqb/0YAuydI9IS0Rui+TwzMqnDZFxamfOJvrs1Xs6t/qjtzUPpnEBHxvBb+nkGRuNZOwV9GiDqSn4tbWB1cg5cxvWS80p7Mx+jrS9J+XoJs4eZSWnWYy5WosnPRJCfGkklzu+sqgssdFfz2yBOO2ClW7Zlbaln0hIz3OLlkg1JYucTcirqbFJpJ1uKlv9ISTZ21I4Aah/DustmepT289DAmxOkm3HeMuWqz1jPguDiDTrR7cn5eheQT3KSi6xqOxzEYIIgojOLlQ7UehLLdKz0VCOpOhviZejetqfI2YabWIrsnLEClGlxJ+zCXk1NQQvn0t25eRgj/rJbk/RgmQs1D/dDDyyRra1ZO71aaQdR8pijtoN/0h7zqK7J+XoJs4eZSVAIb3cc6IrOylyZCUygRi0wCk5kqI/em0tPZbocv2RrRpZOeKkbxoFcL9noXP0zem19tlr8JG/Xt3SJ10teq0No697fBpty1Hynm1MjsLBq7cn5egmzh5lJccgrtxzkU76fIusmEQQQ46kSv0V1RJVEbVybCxFdiVZRIWW8PEvZxPPamtk2E1iry++CE/82+uj54rGpUdjQWpCMvYKqQrGT323Cu2ot9ryzOp4ligY21bV4KU5EaUOgd6U4/7sN3b0KjOiHi4Z+Ieb//2AmCxBcC83USAUtVFJf+veVn8iGBYhR8FcDlOyIJKUFOiHnFdj/vtPzib7vOaaDULY1ZaWPkT8pEr4Lb3ck36Rsv2NTTYHaSN5nttamw025sbWtuWasZQ9pTGi7VVr1k9uk76qz71+9aYc61fdy8tLr7KSswx8+twuJLsoWCzp4rJ5OPVVyZFUqb9tzyK3ES/3sNNGO2pHkW4Rvf6wg2eqczbZ5zXXYGY3lL1+9NlbYGonX/HPbgoWD/DX5iA7LAbYIv/RWxPlgk1uw0Gmra187LHP73Ct8QTjO/g7wsfelKOLOHuVlRxm0DXx7R/3FYVYAoL4NGG0wPSnxa3Fqz6W4FiI6kPJ9ZcMJqD02SJ52KI2kknbVJ/s4BltrU+6xk7p0W9vaSULfNjSCTa0tRsWdqo/z6kt5rRTbeXZ+6VrsMlFr6U+2CC871jseOQ2rztisudzb8rRRZy9ykrOsFhYANQiFhGaJU3J0G89o51qydBx0RKk2pLXs9FOrr9klPRJjuQia0ufncTWvq3rEi6l+5aMtkjQ9rdH5q0+bBLC00aaqSy7OWyRnMZPvm/pRLaNZj0EYOcCsu5U2zmXzv874VDr64iUYzVxjlBW69iZ2zGJa3yAVGra2jYcoUVIJXKz7XVtiVN6VxU2mxqd+CXS9hQwFx7eQt9aHL3yV7RnHsn/0kvMFXacRceIlGP1TBuh7CzA9tjJQqyRwYSvaWvb0E8LpYaQ6Kv2+ssdv2kzuuY0sRWVohO/hKGngHnLUR1MSqkGjx1HtQU373w4yt6j9Y5IOVYT5whlRwO2Qj+LuEYXE76mrW2j6KhlwdPHS0xWt+faRrk1R2+w82wGsoe0gdcva5+uZxWlhrRZsYmo1u8aTGpsIlLX+K7cFGtse8Y2I1KO1cQ5QtkzgjjaJh1Na4+arcQJwWiheHJa5AK9BNOKEfnS2kgQYqmJTq1NbAjPSBoiR/klDBgr1bqnvxGELXlgsGpsLf5nuh6VcqwizlHKzgTwM9vaSpw2Ul3hHxuDXcwlorDRnycSs/28hLsCA8YqtQ1stJn1liDOegRHpRyriHOUsnr3ouUWAixGRRnpFwdb/URIRCYrcnr8IwDIQWQh23M2e6NT/GQzqI1q1Q/SAgv9nlEgdUWWabFjUdpM0j6l38ITX+wmVWp/5/ujUo5VxDlK2Z0HbKTvlji9ciENEU2OwLzyttpLPrZK3xZZQ4BKddQWEY5ISaSRRnR7MiBq9eUIvdfH+xysS2QG2Y0gbmSVdHltv2r7USnHKuIcpeyqg7HaL8hIi8VzrMVOFrRIRwQym0DRu1WTf635nEY+ywfZjw9bsnPP7PE299xiDCnt1Slp8SlWeh996OjNzVpfemVh2xXrkSnHXeIcqeyKg3GETxCfFnJrtCTyUZTH4i0t7hX+2aPm3kYAeclekWwr6adphNRPcEFfTZ1iiIwSmfE87ZfasvfbEueI6HVP31mfj0w57hLnSGVnBfzZ7F5xzFzpMxtBL4F4bBaZiQxLpOaRVWoLMZbIjOe9fitNAbF7UxYl2694f2TKcZc4Ryq74mAc4ZOiMhZKaVEeYVeLTkVLHLlbo8cWvZ7UQIt89YEYS3lbnvcSJxuP5sRexI4vbBy9upF3hnpkynGXOEcqOwO4Z7FRL1u0UEqL8tn9gLjkhxbxStIUNmw8ramOGnz3iJHnSpn0FOTw9UKNLPA/+8Zb46vajE45bhLnaGW1Tka7fQTI0YkAVpPOvnXP3cLmBEuWQkYQbE2tPrbwpUB6nzZsfjUvxOiT1vb0sfXVQtoPf2Yf7fXlAy/JpFM+i6xXz9nRKcdN4hytLB28+N2HAAuvN2Lps+J8vdl0tiK0EcRpc48pSiIOyKv2eJ3K0G9IacuXXL8V9/BfWOKjxX4leY5OOW4S52hlKwbrTjrsd4yeaONOGOV8hWxmvhhCL5tbOj684OuxgdymcsS9H9Fj76hapCi7tDmkBMmmtHLDH51y3CTO0cpGDUrI+Y6AFgz5KhHC7KPXd83nvSqR2QyPiLpEIuRTeSGmcUtJpcYGyYR8JKOWNLGFSHcmcRFZak6mhU1DmKwoM1KOReKcoWwFSHfVocmoSQop3BWHPb9FVBBHLeHsydx7LqIkypVujVHrCzHbv2WTlM/4n0bBe354nkPsuZdPNsfMZuKR7W07I+VYJM4ZyrwOR/tAYDQCRF2rop3R9vfK29s4LKlBsDV1SoAc03PEKR+QOZO8wWpGyrFInDOU4UjUgcBRCPCmuye3eJTtI/RaYszJs88ht5o6JU76lIiR5yVizdnWem9GyrFInDOUtToe/QKBEQgo2iISShf6CPlnkMELJR2lZxaIsYQzz2cT56yUY5Y4ZymbOVAhOxDYQkCkqShTC3b2Yt2y4+hn5FpnYwAxlr5R5flsO2alHLPEOUvZ0ZMm9N8PAXKaWqiKslpeqFwJNSLu2TjsESPPZ9sxK+WYJc5Zyq40AcOXQOBsCNg36nyQnvowKsfJJ3K5iNL+a6fZXzbMSjlmiXOWsnSQ4ncgEAisQ0AvahTp6XOoUhlFnLyEy+VSOQVs2VGyz3N/ZsrxDXHOVOZxOtoGAoHAWAQU/ZGyQPKsiM9GlWl0S6659MYd23rrmSnHN8Q5U1kvENE/EAgE2hHgX/PoGK0iIlVEqBdnMwpRp/RBntiw4nOwmSnHN8Q5U9mMwQmZgUAgUIeACFJEyXF9dsQnq6SDfKf06jqX96zzwNdqZsrxDXHOVOZzO1oHAoFAINCGwOyU4wNxzlbWBkH0CgQCgUDAh8DslOMDcc5W5nM9WgcCgUAg0IbA7JTjA3HOVtYGQfQKBAKBQMCHwOyU4wNxzlbmcz1aBwKBQCDgR2BFyvEbca5Q5ocgegQCgUAg4ENgRcrxG3GuUOZzP1oHAoFAIOBHYEXK8RtxrlDmhyB6BAKBQCDgQ2BFyvEbca5Q5nM/WgcCgUAg4ENgVcrxlThXKfNBEK0DgUAgEPAhsCrl+Eqcq5T5IIjWgUAgEAj4EFiVcnwlzlXKfBBE60AgEAgEfAisSjm+EucqZT4IonUgEAgEAvUIrEw5vpMy/V9L3r9/H3+BQcyBmAOnngMKAleU14hzhaLQEQgEAoHAVRD4H0TKNUhRRiqeAAAAAElFTkSuQmCC;" vertex="1" parent="1">
          <mxGeometry x="213" y="250" width="200.4" height="60" as="geometry" />
        </mxCell>
        <mxCell id="gXjHrzIVwWU5jrJc0VjO-49" value="" style="shape=image;verticalLabelPosition=bottom;labelBackgroundColor=default;verticalAlign=top;aspect=fixed;imageAspect=0;image=data:image/png,iVBORw0KGgoAAAANSUhEUgAAAU4AAABkCAYAAADpE9mNAAAU+klEQVR4Ae2czZHdthKFpRAcg1PQ3kuHoBiUgssJKANn4Ai88NoJKAFl4L2rvJlXZ54/qS8GINH44yXZqBqDlwT65wA4aDQpv3uJEggEAoFAIOBC4J2rdWPjn3766eX9+/fxFxjEHIg5cPo58O+//75MJ85//vnnFSjVUQKBQCAQOCsCf/7554uCQJXpxGmVnRWwsDsQCAQCgV9//fVFfyrTidMqC+gDgUAgEDgrAoo2FQiqTCdOq+ysgIXdgUAgcG8E0pTjVOJMld0b+vA+EAgEzopAmnKcSpypsrOCFnYHAoHAvRFIU45TiTNVdm/ow/tAIBA4KwJpynEqcabKzgpa2B0IBAL3RSCXcpxGnDll94U+PA8EAoGzIpBLOU4jzpyyswIXdgcCgcB9EcilHKcRZ07ZfaEPzwOBQOCsCORSjtOIM6fsrMCF3YHAlRB49+7di/37/fff37j3+fPnhzYfPnx402b0jb///vtFen/44YfRopvllVKOU4izpKzZ+ugYCAQCwxAQQf3444/fiPHnn3/OyoY89Vx9ZhaRtwgTQp+pyyO7lHKcQpwlZR6Do20gEAjMQ0BkqCgSovr69esbZb/99tvr8z/++OPNs1E3JFskLtK0ZD5Kfq+cUspxCnGWlPU6Ef0DgUBgDAIiTEWUkOcvv/zyRrDuqd2saPPLly+vhCmCVvnrr7++EfkbYw66UUo5TiHOkrKDfA+1gUAgYBCAoBTtEVXm8opEpabr8EtLytglsn6GspVyHG7hlrJnACNsCATujgC5Sx3P9cdxPX1JpPufPn1aBtezEedWynE4cW4pWzYCoSgQCASKCCiStBHmx48fX8lTNQUSS8mU5zNqdD5LxLmVchxOnFvKZoAdMgOBQMCHgEjTkqTIkaiTl0Q2Ks1JF/nSp7ZWn63ybMS5lXIcTpxbyrZAi2d9CGjS6VhFsr9P2jV724XJYocorMcpKeRenNj2I65lh8Zvj1xkt8ZYbeWPt+iFjGTwQob+IlN7X3bYqJR21ClG4LlV7/lmxwc9R9V7KcehxLmn7CgQrqxXyXUmseqZn45cAUeIgwWuyCpXwHQ2aWr8iO5k0x65yFaNMfapti9Ycr7Ye7wMEg628AZdnwSpyBYbldq2s66fiTj3Uo5DiXNP2SzA7ypXUQqRwspc1NnxFikQmUMUqU/k/TyklMrY+y3C1PjxHWMtcSKXI7Zk5CJn2tlafuUiSfWXfv0hN41KrZwZ189EnHspx6HEuadsBth3lsniXx0ZnBlzFqeiNogiF6ULW/3NKiIlEabsUSHqrIk4rU06ssuPWltFmiUdRLGySzKxzeqbec3YSPfRZS/lONTCPWVHg3El/UQFmmS10caV/G/1BYJSJElUmdt4hOuKYzp+YFeJ1GiX1mmkmD63v0lTSFeu2Dl1BHlZ4pwZ6ed8t/dqUo7DiLNGmTUurvsQICrwLrQ+refvLbyEnYolCrv5sID1fFVpJU7ZxwaAXyWbiU5zGwV9FJGKNFfPK5E6frBp2THBvhV1TcpxGHHWKFvh9B102CijFD3cAYcWH7UoLXFAFDafB4mtXLjobCEs+sq3ks2WlLaIkZdEq+aV/JU9W3+rbGE+1aQchxFnjTIMi7oPARspteahtMC0SJi4LQu2z4u23iww2Suy8xzpOKpakiQKs9GaZNvf1lKiUeyorffGCfJrGQdr08oo2eJypeualOMw4qxRdiVwj/SFRaZFu7cgc3bSX9GWFpqHfHLyVt8T6csH2Y8PNTaIMIWZ/RQHMrX3dW2jUivbkpTa1f7tjRNj0kuckhOlHYHalOMQ4qxV1u5O9LQI2GNX6Whm29trFqgI52yEaf3QtSW93JvxtL1wk99p4esEPioXGdqoNG0/4zfj0kKcFocS4c+w+Yoya1OOQ4izVtkVgT7CJy0uIh2PfpEs/a5ypCMnVzpaW3xEmjliIfWh57mo1MqYdd1DnLKJcW0h3lk+nVFubcpxCHHWKjsjkM9ocytxQjJaZFcpNtraijpplzvKKvIWaQoXEfAR+PQQJ77J7iDOvpldm3IcsoJqlfW5FL1BwBLnXu6MPqo5kl5tcYkw9KejdqkQSZbw4iXRUeQDcdZ+yG79tHnXq42t9XP2tSfl2E2cHmWzHb+L/FbihGCutrj2NgRFlLQp5S5t1JaLSmfOLREfka7GyPvCLohzzOh4Uo7dxOlRNsa9kGKjo63jaYoUxKkj+5UKG0nuxY/85BiO/yVihFxLUelozLBnq66xhWhacq42tqMx35LnSTl2E6dH2ZbR8aweAY51WiglEkil2YjqaosL4hQedywt8+GOOO357Ek5ds80j7I9w+N5HQK8BfZEGJY4r3pUvytx2s/TPCeQutl2j1belGMXcXqV3WMI5nvZmtMSsejvasSJXzWfJM0fnfUabMRdc7Rfb+Hza/SmHLuI06vs+eE7h4V62QFZeEiQPqVc4Dm8f7SyFYtHKef+ZV8snduT46z3phy7iNOr7DhYrqcZElRdW2xkUtvn2dvZ6Hvrc6Rn96PHPubClTbEHjxa+npTjvWrLmONV1lGRNxqRIA3wB7itG/jlfO8QlFOD+KofVF2Bb+tD/jvOX3Y/ne/bkk5NhNni7K7D9BI/4kePVGGfftamwvTpy4cBaVTR+O0iISxx0PkqZyW3y0+teh55j52fJ7Zzme1rSXl2EycLcpKwKXf2Wnx6Z7eFtYu8JLsq94n4vREGV6Sse2JatLjsEjTjp/HnhFjY79hvOtc4SShORHFj0BLyrGZOFuUlVxiUWrR8ccuqmfxicUjcvaFSOlfwjz2+P8vS4S55/YeuUP+FYsdD9rJDpGmFqyuVa/+RtR+ZnVX4mSstFa8/7csxvLOdUvKsZk4W5SVBgfiTJ+zk2rRRvmOAFGWSCt3dP7e8vFKm5KwriE36bDt0Kn+EJTkQZqPmtb+wq80Gl5rxbHaWCt2zI616BzaW1OOTcTZqqwEZYk4bWRV6nu3+yItjsYQ2B4GikJYWCKZlmIjO5GoolfZoftHF6JdzSPZ5dlMjrZ9lH75zAYiDCLyrEO2NeXYRJytykqueImTRZz7fyumOvhXFXaB24WGbtWKnkoLD/KBtNReE1VH2a1ij7hWl649k1t6ZJ/6yYba9IX8QW8raeIfvrNA93yn34paY2qxrt1UVti2UofFQGMfZRuB1pRjE3G2Kiu5wMJOn3M8TI9gWhTqU0MELHK7kOivSabJpT8dcZh0qVz7yYva6DkkJjtS+6wfem71SBd6rE22T+66lTglC9LfszWn194DyxY5noiX8ZGemujRboTCt6aP9esK1xYDzWXPpnwF/1t9aE05NhFnq7KSc1og+oPEVBMparGmC4GFlRJcTj6L3ZJUqb/0YAuydI9IS0Rui+TwzMqnDZFxamfOJvrs1Xs6t/qjtzUPpnEBHxvBb+nkGRuNZOwV9GiDqSn4tbWB1cg5cxvWS80p7Mx+jrS9J+XoJs4eZSWnWYy5WosnPRJCfGkklzu+sqgssdFfz2yBOO2ClW7Zlbaln0hIz3OLlkg1JYucTcirqbFJpJ1uKlv9ISTZ21I4Aah/DustmepT289DAmxOkm3HeMuWqz1jPguDiDTrR7cn5eheQT3KSi6xqOxzEYIIgojOLlQ7UehLLdKz0VCOpOhviZejetqfI2YabWIrsnLEClGlxJ+zCXk1NQQvn0t25eRgj/rJbk/RgmQs1D/dDDyyRra1ZO71aaQdR8pijtoN/0h7zqK7J+XoJs4eZSVAIb3cc6IrOylyZCUygRi0wCk5kqI/em0tPZbocv2RrRpZOeKkbxoFcL9noXP0zem19tlr8JG/Xt3SJ10teq0No697fBpty1Hynm1MjsLBq7cn5egmzh5lJccgrtxzkU76fIusmEQQQ46kSv0V1RJVEbVybCxFdiVZRIWW8PEvZxPPamtk2E1iry++CE/82+uj54rGpUdjQWpCMvYKqQrGT323Cu2ot9ryzOp4ligY21bV4KU5EaUOgd6U4/7sN3b0KjOiHi4Z+Ieb//2AmCxBcC83USAUtVFJf+veVn8iGBYhR8FcDlOyIJKUFOiHnFdj/vtPzib7vOaaDULY1ZaWPkT8pEr4Lb3ck36Rsv2NTTYHaSN5nttamw025sbWtuWasZQ9pTGi7VVr1k9uk76qz71+9aYc61fdy8tLr7KSswx8+twuJLsoWCzp4rJ5OPVVyZFUqb9tzyK3ES/3sNNGO2pHkW4Rvf6wg2eqczbZ5zXXYGY3lL1+9NlbYGonX/HPbgoWD/DX5iA7LAbYIv/RWxPlgk1uw0Gmra187LHP73Ct8QTjO/g7wsfelKOLOHuVlRxm0DXx7R/3FYVYAoL4NGG0wPSnxa3Fqz6W4FiI6kPJ9ZcMJqD02SJ52KI2kknbVJ/s4BltrU+6xk7p0W9vaSULfNjSCTa0tRsWdqo/z6kt5rRTbeXZ+6VrsMlFr6U+2CC871jseOQ2rztisudzb8rRRZy9ykrOsFhYANQiFhGaJU3J0G89o51qydBx0RKk2pLXs9FOrr9klPRJjuQia0ufncTWvq3rEi6l+5aMtkjQ9rdH5q0+bBLC00aaqSy7OWyRnMZPvm/pRLaNZj0EYOcCsu5U2zmXzv874VDr64iUYzVxjlBW69iZ2zGJa3yAVGra2jYcoUVIJXKz7XVtiVN6VxU2mxqd+CXS9hQwFx7eQt9aHL3yV7RnHsn/0kvMFXacRceIlGP1TBuh7CzA9tjJQqyRwYSvaWvb0E8LpYaQ6Kv2+ssdv2kzuuY0sRWVohO/hKGngHnLUR1MSqkGjx1HtQU373w4yt6j9Y5IOVYT5whlRwO2Qj+LuEYXE76mrW2j6KhlwdPHS0xWt+faRrk1R2+w82wGsoe0gdcva5+uZxWlhrRZsYmo1u8aTGpsIlLX+K7cFGtse8Y2I1KO1cQ5QtkzgjjaJh1Na4+arcQJwWiheHJa5AK9BNOKEfnS2kgQYqmJTq1NbAjPSBoiR/klDBgr1bqnvxGELXlgsGpsLf5nuh6VcqwizlHKzgTwM9vaSpw2Ul3hHxuDXcwlorDRnycSs/28hLsCA8YqtQ1stJn1liDOegRHpRyriHOUsnr3ouUWAixGRRnpFwdb/URIRCYrcnr8IwDIQWQh23M2e6NT/GQzqI1q1Q/SAgv9nlEgdUWWabFjUdpM0j6l38ITX+wmVWp/5/ujUo5VxDlK2Z0HbKTvlji9ciENEU2OwLzyttpLPrZK3xZZQ4BKddQWEY5ISaSRRnR7MiBq9eUIvdfH+xysS2QG2Y0gbmSVdHltv2r7USnHKuIcpeyqg7HaL8hIi8VzrMVOFrRIRwQym0DRu1WTf635nEY+ywfZjw9bsnPP7PE299xiDCnt1Slp8SlWeh996OjNzVpfemVh2xXrkSnHXeIcqeyKg3GETxCfFnJrtCTyUZTH4i0t7hX+2aPm3kYAeclekWwr6adphNRPcEFfTZ1iiIwSmfE87ZfasvfbEueI6HVP31mfj0w57hLnSGVnBfzZ7F5xzFzpMxtBL4F4bBaZiQxLpOaRVWoLMZbIjOe9fitNAbF7UxYl2694f2TKcZc4Ryq74mAc4ZOiMhZKaVEeYVeLTkVLHLlbo8cWvZ7UQIt89YEYS3lbnvcSJxuP5sRexI4vbBy9upF3hnpkynGXOEcqOwO4Z7FRL1u0UEqL8tn9gLjkhxbxStIUNmw8ramOGnz3iJHnSpn0FOTw9UKNLPA/+8Zb46vajE45bhLnaGW1Tka7fQTI0YkAVpPOvnXP3cLmBEuWQkYQbE2tPrbwpUB6nzZsfjUvxOiT1vb0sfXVQtoPf2Yf7fXlAy/JpFM+i6xXz9nRKcdN4hytLB28+N2HAAuvN2Lps+J8vdl0tiK0EcRpc48pSiIOyKv2eJ3K0G9IacuXXL8V9/BfWOKjxX4leY5OOW4S52hlKwbrTjrsd4yeaONOGOV8hWxmvhhCL5tbOj684OuxgdymcsS9H9Fj76hapCi7tDmkBMmmtHLDH51y3CTO0cpGDUrI+Y6AFgz5KhHC7KPXd83nvSqR2QyPiLpEIuRTeSGmcUtJpcYGyYR8JKOWNLGFSHcmcRFZak6mhU1DmKwoM1KOReKcoWwFSHfVocmoSQop3BWHPb9FVBBHLeHsydx7LqIkypVujVHrCzHbv2WTlM/4n0bBe354nkPsuZdPNsfMZuKR7W07I+VYJM4ZyrwOR/tAYDQCRF2rop3R9vfK29s4LKlBsDV1SoAc03PEKR+QOZO8wWpGyrFInDOU4UjUgcBRCPCmuye3eJTtI/RaYszJs88ht5o6JU76lIiR5yVizdnWem9GyrFInDOUtToe/QKBEQgo2iISShf6CPlnkMELJR2lZxaIsYQzz2cT56yUY5Y4ZymbOVAhOxDYQkCkqShTC3b2Yt2y4+hn5FpnYwAxlr5R5flsO2alHLPEOUvZ0ZMm9N8PAXKaWqiKslpeqFwJNSLu2TjsESPPZ9sxK+WYJc5Zyq40AcOXQOBsCNg36nyQnvowKsfJJ3K5iNL+a6fZXzbMSjlmiXOWsnSQ4ncgEAisQ0AvahTp6XOoUhlFnLyEy+VSOQVs2VGyz3N/ZsrxDXHOVOZxOtoGAoHAWAQU/ZGyQPKsiM9GlWl0S6659MYd23rrmSnHN8Q5U1kvENE/EAgE2hHgX/PoGK0iIlVEqBdnMwpRp/RBntiw4nOwmSnHN8Q5U9mMwQmZgUAgUIeACFJEyXF9dsQnq6SDfKf06jqX96zzwNdqZsrxDXHOVOZzO1oHAoFAINCGwOyU4wNxzlbWBkH0CgQCgUDAh8DslOMDcc5W5nM9WgcCgUAg0IbA7JTjA3HOVtYGQfQKBAKBQMCHwOyU4wNxzlbmcz1aBwKBQCDgR2BFyvEbca5Q5ocgegQCgUAg4ENgRcrxG3GuUOZzP1oHAoFAIOBHYEXK8RtxrlDmhyB6BAKBQCDgQ2BFyvEbca5Q5nM/WgcCgUAg4ENgVcrxlThXKfNBEK0DgUAgEPAhsCrl+Eqcq5T5IIjWgUAgEAj4EFiVcnwlzlXKfBBE60AgEAgEfAisSjm+EucqZT4IonUgEAgEAvUIrEw5vpMy/V9L3r9/H3+BQcyBmAOnngMKAleU14hzhaLQEQgEAoHAVRD4H0TKNUhRRiqeAAAAAElFTkSuQmCC;labelPadding=0;rotatable=0;allowArrows=0;connectable=0;" vertex="1" parent="1">
          <mxGeometry x="380.5" y="771" width="200.4" height="60" as="geometry" />
        </mxCell>
        <mxCell id="gXjHrzIVwWU5jrJc0VjO-52" value="" style="endArrow=classic;html=1;rounded=0;" edge="1" parent="1">
          <mxGeometry width="50" height="50" relative="1" as="geometry">
            <mxPoint x="389" y="801.07" as="sourcePoint" />
            <mxPoint x="314" y="800.9300000000001" as="targetPoint" />
          </mxGeometry>
        </mxCell>
        <mxCell id="gXjHrzIVwWU5jrJc0VjO-53" value="" style="endArrow=classic;html=1;rounded=0;exitX=0.5;exitY=1;exitDx=0;exitDy=0;" edge="1" parent="1" source="gXjHrzIVwWU5jrJc0VjO-17">
          <mxGeometry width="50" height="50" relative="1" as="geometry">
            <mxPoint x="634" y="710" as="sourcePoint" />
            <mxPoint x="573.5" y="800.83" as="targetPoint" />
            <Array as="points">
              <mxPoint x="634" y="801" />
            </Array>
          </mxGeometry>
        </mxCell>
      </root>
    </mxGraphModel>
  </diagram>
</mxfile>
